<svg xmlns="http://www.w3.org/2000/svg" id="icon_onecolor" width="320" height="100" version="1.1"><defs><style>.st0{fill:#231f20}</style></defs><path d="M33.481 31.13h55.974v55.974H33.481z" style="stroke:#000;stroke-miterlimit:10;stroke-width:3.54px"/><path d="M14.823 12.472h55.974v55.974H14.823z" style="stroke:#000;stroke-miterlimit:10;stroke-width:3.54px;fill:#fff"/><path d="m130.293 41.33-4.195 34.132h-5.093l4.194-34.132h5.094Zm1.52-10.302c0 .722-.269 1.352-.806 1.89a2.667 2.667 0 0 1-1.959.806c-.754 0-1.406-.276-1.959-.83-.553-.567-.83-1.236-.83-2.004 0-.738.269-1.375.807-1.913.537-.538 1.175-.807 1.913-.807.767 0 1.429.285 1.982.853.568.553.853 1.221.853 2.005ZM149.884 43.727l-2.881 2.88c-1.352-1.213-2.605-1.82-3.757-1.82-.783 0-1.432.219-1.947.657s-.772.98-.772 1.625c0 .63.215 1.16.645 1.59.43.446 1.329 1.045 2.696 1.797 1.951 1.092 3.258 2.09 3.918 2.997.707.89 1.06 2.05 1.06 3.48 0 2.059-.714 3.71-2.143 4.954-1.46 1.23-3.357 1.844-5.692 1.844-3.18 0-5.816-1.436-7.905-4.31l3.341-2.327c1.368 1.644 2.827 2.466 4.38 2.466.875 0 1.578-.23 2.108-.691s.795-1.06.795-1.798c0-.645-.222-1.167-.668-1.567-.216-.2-.591-.476-1.13-.83-.538-.353-1.267-.775-2.189-1.268-1.628-.906-2.758-1.79-3.388-2.65-.63-.906-.945-2.012-.945-3.319 0-1.966.723-3.595 2.167-4.886s3.28-1.936 5.508-1.936c2.458 0 4.724 1.038 6.799 3.112ZM179.417 24.114l-4.794 38.925h-5.07l.277-2.327c-1.261 1.122-2.351 1.883-3.273 2.281-.907.37-2.028.554-3.365.554-3.042 0-5.531-1.005-7.467-3.02-1.936-2.027-2.904-4.639-2.904-7.835 0-3.41 1.06-6.246 3.18-8.504S160.787 40.8 164 40.8c1.643 0 3.026.284 4.148.853 1.167.584 2.389 1.575 3.665 2.973l2.512-20.512h5.093Zm-8.389 27.126c0-1.844-.57-3.334-1.705-4.471-1.138-1.137-2.628-1.706-4.472-1.706-1.998 0-3.649.746-4.955 2.236-1.306 1.49-1.959 3.373-1.959 5.647 0 1.92.56 3.465 1.683 4.632 1.121 1.152 2.611 1.728 4.47 1.728 1.937 0 3.573-.783 4.91-2.35 1.352-1.536 2.028-3.442 2.028-5.716ZM186.575 54.006c0 1.598.554 2.912 1.66 3.94 1.121 1.03 2.55 1.545 4.287 1.545 2.381 0 4.209-.89 5.485-2.674l3.802 2.098c-1.321 1.783-2.681 3.027-4.079 3.733-1.414.722-3.18 1.083-5.3 1.083-3.366 0-6.047-.991-8.044-2.973-1.997-1.982-2.996-4.632-2.996-7.95 0-3.473 1.098-6.377 3.296-8.712 2.181-2.32 4.94-3.48 8.273-3.48 3.227 0 5.77 1.045 7.629 3.134 1.89 2.105 2.835 4.924 2.835 8.458 0 .369-.023.968-.07 1.798h-16.778Zm11.685-4.103c-.538-3.349-2.389-5.024-5.554-5.024-2.996 0-4.947 1.675-5.854 5.024h11.408ZM222.795 43.727l-2.881 2.88c-1.353-1.213-2.604-1.82-3.757-1.82-.783 0-1.433.219-1.947.657-.515.438-.772.98-.772 1.625 0 .63.214 1.16.645 1.59.43.446 1.329 1.045 2.697 1.797 1.95 1.092 3.256 2.09 3.917 2.997.707.89 1.06 2.05 1.06 3.48 0 2.059-.714 3.71-2.143 4.954-1.46 1.23-3.358 1.844-5.692 1.844-3.18 0-5.816-1.436-7.905-4.31l3.341-2.327c1.367 1.644 2.827 2.466 4.38 2.466.875 0 1.578-.23 2.108-.691s.795-1.06.795-1.798c0-.645-.223-1.167-.668-1.567-.216-.2-.592-.476-1.13-.83-.538-.353-1.267-.775-2.189-1.268-1.63-.906-2.759-1.79-3.388-2.65-.63-.906-.945-2.012-.945-3.319 0-1.966.722-3.595 2.167-4.886 1.444-1.29 3.28-1.936 5.508-1.936 2.458 0 4.725 1.038 6.799 3.112ZM233.589 41.33l-2.674 21.71h-5.093l2.673-21.71h5.094Zm1.59-10.325c0 .737-.269 1.375-.807 1.913s-1.183.806-1.936.806-1.405-.276-1.959-.83c-.538-.583-.806-1.251-.806-2.004 0-.753.261-1.39.783-1.913.539-.538 1.176-.807 1.913-.807.753 0 1.406.285 1.96.853.567.553.852 1.214.852 1.982ZM261.904 41.33l-2.673 21.87c-.17 1.308-.358 2.444-.565 3.412s-.441 1.782-.703 2.443a9.303 9.303 0 0 1-2.397 3.48c-2.059 1.844-4.732 2.765-8.02 2.765-3.396 0-6.146-.89-8.25-2.673-1.076-.89-1.83-1.905-2.26-3.042-.43-1.044-.645-2.512-.645-4.402h4.932c.124 2.044.646 3.53 1.567 4.46.922.93 2.351 1.394 4.287 1.394 2.09 0 3.68-.557 4.77-1.671 1.092-1.113 1.784-2.884 2.075-5.312l.369-2.974c-2.152 1.646-4.41 2.467-6.776 2.467-2.95 0-5.385-1.005-7.306-3.02-1.92-2.058-2.88-4.623-2.88-7.697 0-3.457 1.114-6.322 3.341-8.596 2.244-2.29 5.047-3.434 8.412-3.434 1.614 0 2.92.238 3.918.714 1.091.461 2.22 1.299 3.388 2.512l.323-2.696h5.093Zm-5.854 10.302c0-1.967-.599-3.55-1.797-4.748-1.199-1.213-2.766-1.82-4.702-1.82-2.013 0-3.687.737-5.024 2.212-1.322 1.46-1.982 3.296-1.982 5.508 0 1.936.568 3.519 1.705 4.748 1.153 1.183 2.674 1.774 4.564 1.774 2.105 0 3.833-.721 5.185-2.166 1.368-1.46 2.051-3.296 2.051-5.508ZM273.68 41.33l-.23 2.005c2.013-1.69 4.048-2.535 6.107-2.535 2.12 0 3.818.592 5.093 1.774 1.245 1.184 1.867 2.797 1.867 4.84 0 1.107-.092 2.428-.277 3.964L284.79 63.04h-5.07l1.566-12.767c.061-.476.104-.899.127-1.267s.035-.7.035-.992c0-1.966-1.06-2.95-3.18-2.95-1.306 0-2.429.4-3.366 1.199a5.734 5.734 0 0 0-1.705 2.305c-.2.46-.369 1.025-.507 1.694s-.262 1.44-.369 2.316l-1.29 10.462h-5.094l2.674-21.71h5.07ZM306.677 43.727l-2.88 2.88c-1.352-1.213-2.605-1.82-3.757-1.82-.784 0-1.433.219-1.948.657s-.772.98-.772 1.625c0 .63.216 1.16.646 1.59.43.446 1.328 1.045 2.696 1.797 1.951 1.092 3.258 2.09 3.918 2.997.706.89 1.06 2.05 1.06 3.48 0 2.059-.714 3.71-2.143 4.954-1.46 1.23-3.357 1.844-5.693 1.844-3.18 0-5.816-1.436-7.905-4.31l3.342-2.327c1.368 1.644 2.827 2.466 4.379 2.466.876 0 1.579-.23 2.109-.691s.795-1.06.795-1.798c0-.645-.223-1.167-.669-1.567-.215-.2-.59-.476-1.129-.83-.538-.353-1.267-.775-2.19-1.268-1.628-.906-2.757-1.79-3.387-2.65-.63-.906-.945-2.012-.945-3.319 0-1.966.722-3.595 2.166-4.886 1.444-1.29 3.281-1.936 5.508-1.936 2.458 0 4.725 1.038 6.8 3.112Z" class="st0"/></svg>